<svg width="224" height="30" viewBox="0 0 224 30" fill="none" xmlns="http://www.w3.org/2000/svg">
<path d="M0.69043 28.8769V1.92795C2.97355 1.56102 5.94976 1.31641 9.04828 1.31641C14.3076 1.31641 17.7323 2.29488 20.3416 4.25184C23.1955 6.37189 24.9894 9.75579 24.9894 14.6074C24.9894 19.8668 23.0732 23.4953 20.4639 25.7376C17.5692 28.1431 13.1253 29.2846 7.74364 29.2846C4.52281 29.2846 2.19892 29.0808 0.69043 28.8769ZM6.88747 6.33111V24.3107C7.41748 24.433 8.31442 24.433 9.04828 24.433C14.7153 24.4738 18.4254 21.3752 18.4254 14.8113C18.4254 9.10347 15.0822 6.08649 9.7006 6.08649C8.35519 6.08649 7.41748 6.20881 6.88747 6.33111Z" fill="#CFCFD0"/>
<path d="M46.4866 21.0093H33.6441C33.8072 23.5778 36.3757 24.8009 39.2703 24.8009C41.3904 24.8009 43.1027 24.5155 44.7743 23.9448L45.5897 28.1441C43.5512 29.0002 41.0642 29.4079 38.3734 29.4079C31.6056 29.4079 27.7324 25.494 27.7324 19.2562C27.7324 14.2007 30.8717 8.61523 37.8026 8.61523C44.2443 8.61523 46.6905 13.6299 46.6905 18.5631C46.6905 19.6231 46.5682 20.5608 46.4866 21.0093ZM33.6033 16.7692H40.9419C40.9419 15.2607 40.2896 12.733 37.4357 12.733C34.8264 12.733 33.7664 15.1384 33.6033 16.7692Z" fill="#CFCFD0"/>
<path d="M50.4141 23.047V0.0527344H56.6111V11.4276H56.6927C57.875 9.71523 59.9543 8.61444 62.7266 8.61444C67.4967 8.61444 70.9622 12.5691 70.9214 18.6846C70.9214 25.8601 66.3959 29.4479 61.8297 29.4479C59.5058 29.4479 57.2227 28.5917 55.8365 26.2271H55.755L55.5104 28.9994H50.251C50.3326 27.6948 50.4141 25.2894 50.4141 23.047ZM56.6111 17.5838V20.5193C56.6111 20.927 56.6519 21.2939 56.7335 21.6201C57.1412 23.2509 58.5681 24.5555 60.362 24.5555C63.012 24.5555 64.6428 22.517 64.6428 18.9292C64.6428 15.8307 63.2567 13.3845 60.362 13.3845C58.6904 13.3845 57.1412 14.6484 56.7335 16.4423C56.6519 16.8092 56.6111 17.1761 56.6111 17.5838Z" fill="#CFCFD0"/>
<path d="M75.6363 5.35321L81.7111 3.68164V9.06329H86.155V13.6295H81.7111V20.8458C81.7111 23.2513 82.3226 24.3521 84.1572 24.3521C85.0134 24.3521 85.4211 24.3113 85.9919 24.189L86.0327 28.8775C85.258 29.1629 83.7496 29.4075 82.0372 29.4075C80.0395 29.4075 78.3679 28.7144 77.3487 27.6952C76.2071 26.5129 75.6363 24.5967 75.6363 21.7835V13.6295H72.9863V9.06329H75.6363V5.35321Z" fill="#CFCFD0"/>
<path d="M89.9951 28.9985V1.51953H96.1921V23.78H107.119V28.9985H89.9951Z" fill="#CFCFD0"/>
<path d="M127.828 21.0093H114.985C115.148 23.5778 117.717 24.8009 120.612 24.8009C122.732 24.8009 124.444 24.5155 126.116 23.9448L126.931 28.1441C124.892 29.0002 122.405 29.4079 119.715 29.4079C112.947 29.4079 109.074 25.494 109.074 19.2562C109.074 14.2007 112.213 8.61523 119.144 8.61523C125.586 8.61523 128.032 13.6299 128.032 18.5631C128.032 19.6231 127.909 20.5608 127.828 21.0093ZM114.945 16.7692H122.283C122.283 15.2607 121.631 12.733 118.777 12.733C116.168 12.733 115.108 15.1384 114.945 16.7692Z" fill="#CFCFD0"/>
<path d="M148.348 17.2175V24.1892C148.348 26.0646 148.43 27.8992 148.674 29H143.089L142.722 27.0023H142.6C141.295 28.5923 139.257 29.4485 136.892 29.4485C132.856 29.4485 130.45 26.5131 130.45 23.333C130.45 18.1552 135.098 15.709 142.151 15.709V15.4644C142.151 14.3636 141.58 12.8551 138.523 12.8551C136.484 12.8551 134.323 13.5482 133.019 14.3636L131.877 10.3681C133.263 9.59348 135.995 8.57422 139.623 8.57422C146.269 8.57422 148.348 12.4882 148.348 17.2175ZM142.355 21.743V19.5822C139.093 19.5822 136.566 20.3568 136.566 22.7215C136.566 24.3115 137.626 25.0861 139.012 25.0861C140.52 25.0861 141.825 24.0669 142.233 22.803C142.314 22.4768 142.355 22.1099 142.355 21.743Z" fill="#CFCFD0"/>
<path d="M166.422 0.0527344H172.619V23.047C172.619 25.2894 172.701 27.654 172.783 28.9994H167.279L167.034 26.1048H166.912C165.689 28.3063 163.242 29.4479 160.674 29.4479C155.945 29.4479 152.153 25.4117 152.153 19.2146C152.112 12.4876 156.311 8.57366 161.082 8.57366C163.568 8.57366 165.444 9.47061 166.341 10.816H166.422V0.0527344ZM166.422 20.1116V17.5023C166.422 17.1761 166.422 16.7277 166.341 16.3607C165.974 14.7299 164.629 13.3438 162.712 13.3438C159.858 13.3438 158.431 15.8715 158.431 19.0108C158.431 22.3947 160.103 24.5147 162.672 24.5147C164.465 24.5147 165.933 23.2916 166.3 21.5385C166.382 21.0901 166.422 20.6008 166.422 20.1116Z" fill="#CFCFD0"/>
<path d="M176.44 28.0216L177.54 23.6184C178.682 24.3115 181.047 25.0861 182.881 25.0861C184.757 25.0861 185.531 24.4746 185.531 23.4553C185.531 22.3953 184.92 21.9061 182.637 21.1314C178.478 19.7452 176.888 17.5029 176.929 15.1382C176.929 11.3874 180.109 8.57422 185.042 8.57422C187.366 8.57422 189.405 9.14501 190.628 9.75655L189.568 14.0374C188.671 13.5482 186.918 12.8959 185.246 12.8959C183.738 12.8959 182.881 13.5074 182.881 14.4859C182.881 15.4644 183.656 15.9536 186.102 16.8098C189.894 18.1144 191.443 20.0714 191.484 22.9661C191.484 26.7169 188.589 29.4485 182.881 29.4485C180.272 29.4485 177.948 28.837 176.44 28.0216Z" fill="#CFCFD0"/>
<path d="M196.367 29.2861C195.038 29.2861 194.074 28.2701 194.074 26.8895C194.074 25.4567 195.038 24.4668 196.419 24.4668C197.774 24.4668 198.711 25.4307 198.737 26.8895C198.737 28.2701 197.8 29.2861 196.367 29.2861Z" fill="#CFCFD0"/>
<path d="M210.219 25.7434L210.688 28.661C209.985 28.9996 208.656 29.2601 207.145 29.2601C203.03 29.2601 200.398 26.7333 200.398 22.7476C200.398 19.0225 202.951 15.9746 207.692 15.9746C208.734 15.9746 209.881 16.157 210.714 16.4696L210.089 19.4132C209.62 19.2048 208.917 19.0225 207.875 19.0225C205.791 19.0225 204.436 20.5073 204.462 22.5913C204.462 24.9098 206.025 26.1602 207.953 26.1602C208.891 26.1602 209.62 26.0039 210.219 25.7434Z" fill="#CFCFD0"/>
<path d="M223.585 21.4718V25.9263C223.585 27.1246 223.637 28.2969 223.793 29.0002H220.225L219.99 27.7238H219.912C219.078 28.7397 217.776 29.2868 216.265 29.2868C213.686 29.2868 212.149 27.4112 212.149 25.3793C212.149 22.0709 215.119 20.5079 219.625 20.5079V20.3516C219.625 19.6483 219.261 18.6844 217.307 18.6844C216.004 18.6844 214.624 19.1273 213.79 19.6483L213.061 17.0954C213.946 16.6004 215.692 15.9492 218.01 15.9492C222.256 15.9492 223.585 18.45 223.585 21.4718ZM219.756 24.3633V22.9827C217.672 22.9827 216.057 23.4776 216.057 24.9885C216.057 26.0045 216.734 26.4994 217.62 26.4994C218.583 26.4994 219.417 25.8482 219.677 25.0406C219.73 24.8322 219.756 24.5978 219.756 24.3633Z" fill="#CFCFD0"/>
</svg>
